<svg xmlns="http://www.w3.org/2000/svg" version="1.1" xmlns:xlink="http://www.w3.org/1999/xlink" xmlns:svgjs="http://svgjs.com/svgjs" width="256" height="256" x="0" y="0" viewBox="0 0 24 24" style="enable-background:new 0 0 512 512" xml:space="preserve"><g><path d="M12,24C5.383,24,0,18.617,0,12S5.383,0,12,0s12,5.383,12,12-5.383,12-12,12Zm0-22C6.486,2,2,6.486,2,12s4.486,10,10,10,10-4.486,10-10S17.514,2,12,2Zm2.747,11.971l-1.069,.851c-2.071-.791-3.599-2.256-4.5-4.5l.851-1.069c.446-.446,.446-1.17,0-1.616l-1-1.302c-.446-.446-1.17-.446-1.616,0l-.6,.522c-.552,.551-.813,1.277-.813,2,0,4,5.429,9.143,9.143,9.143,.723,0,1.449-.261,2-.813l.522-.6c.446-.446,.446-1.17,0-1.616l-1.302-1c-.446-.446-1.17-.446-1.616,0Z" fill="#ffffff" data-original="#000000"></path></g></svg>